<svg xmlns="http://www.w3.org/2000/svg" xmlns:xlink="http://www.w3.org/1999/xlink" width="1080" zoomAndPan="magnify" viewBox="0 0 810 809.999993" height="1080" preserveAspectRatio="xMidYMid meet" version="1.0"><defs><clipPath id="dffe8cd4a9"><path d="M 60 127.539062 L 748 127.539062 L 748 681 L 60 681 Z M 60 127.539062 " clip-rule="nonzero"/></clipPath><clipPath id="c57c74fe6f"><path d="M 60 127.539062 L 737 127.539062 L 737 681 L 60 681 Z M 60 127.539062 " clip-rule="nonzero"/></clipPath></defs><g clip-path="url(#dffe8cd4a9)"><path fill="#ffde59" d="M 86.898438 260.097656 C 88.777344 260.226562 90.699219 260.3125 92.632812 260.316406 C 93.902344 260.925781 95.949219 260.609375 97.839844 260.726562 C 102.941406 260.953125 108.257812 262.523438 112.371094 265.601562 C 114.582031 268.285156 116.8125 271.089844 118.328125 274.230469 C 119.851562 277.816406 120.667969 281.609375 121.148438 285.464844 C 121.53125 288.542969 122.476562 291.511719 123.117188 294.53125 C 123.160156 294.753906 123.195312 294.972656 123.242188 295.195312 C 123.96875 299.796875 124.652344 304.429688 124.789062 309.082031 C 124.9375 309.734375 125.199219 310.417969 125.882812 310.683594 C 133.507812 311.144531 128.078125 289.90625 127.722656 285.269531 C 127.625 282.359375 127.699219 279.453125 127.839844 276.542969 C 127.851562 276.429688 127.855469 276.316406 127.867188 276.203125 C 128.460938 271.734375 129.085938 266.957031 131.363281 263.019531 C 132.628906 261.742188 134.035156 260.59375 135.53125 259.570312 C 139.773438 259.089844 143.199219 257.613281 147.699219 257.179688 C 151.519531 256.683594 155.601562 256.925781 156.640625 252.644531 C 157.402344 252.578125 158.179688 252.539062 158.984375 252.566406 C 161.109375 252.441406 162.246094 249.59375 161.726562 247.746094 C 161.574219 247.28125 161.179688 246.71875 160.628906 246.71875 C 159.5625 246.675781 158.503906 246.722656 157.445312 246.792969 C 157.246094 246.695312 157.023438 246.625 156.742188 246.605469 C 155.070312 246.585938 153.390625 246.636719 151.710938 246.679688 C 151.363281 246.679688 151.019531 246.671875 150.671875 246.683594 C 149.503906 246.371094 148.367188 245.910156 147.257812 245.417969 C 146.859375 244.757812 146.191406 244.378906 145.195312 244.523438 C 142.519531 243.445312 139.8125 242.410156 137.523438 240.601562 C 131.289062 236.535156 128.292969 229.445312 127.511719 222.261719 C 126.308594 215.613281 124.320312 209.148438 122.808594 202.570312 C 122.773438 202.320312 122.722656 202.074219 122.648438 201.84375 C 122.925781 200.105469 121.492188 198.015625 119.671875 199.148438 C 116.839844 200.890625 116.621094 204.582031 117.292969 207.527344 C 117.296875 207.539062 117.296875 207.546875 117.300781 207.554688 C 116.253906 210.597656 116.699219 213.886719 117.472656 216.992188 C 117.429688 218.921875 117.3125 220.835938 116.96875 222.679688 C 116.558594 228.390625 111.25 246.328125 105.46875 249.855469 C 104.988281 249.929688 104.457031 250.078125 103.910156 250.257812 C 102.773438 249.726562 101.742188 250.304688 100.964844 251.222656 C 100.914062 251.234375 100.863281 251.25 100.816406 251.265625 C 99.75 251.515625 98.710938 251.632812 97.726562 251.75 C 96.402344 251.863281 95.074219 251.9375 93.761719 251.984375 C 90.257812 251.902344 86.4375 251.191406 85.40625 255.722656 C 84.96875 257.191406 84.96875 259.796875 86.898438 260.097656 Z M 120.652344 230.984375 C 120.738281 231.324219 120.828125 231.675781 120.914062 232.023438 C 120.652344 232.164062 120.398438 232.34375 120.15625 232.59375 C 120.332031 232.023438 120.496094 231.484375 120.652344 230.984375 Z M 720.230469 532.0625 C 720.679688 532.671875 720.808594 533.484375 720.753906 534.277344 C 719.980469 539.910156 714.097656 540.890625 708.300781 540.9375 C 708.199219 540.96875 708.101562 541.007812 708 541.027344 C 708 541.035156 708 541.039062 708 541.042969 C 707.941406 541.042969 707.886719 541.035156 707.832031 541.03125 C 702.878906 542.511719 697.867188 544.257812 694.113281 547.699219 C 692.242188 550.089844 689.566406 553.003906 688.496094 555.769531 C 687.503906 562.167969 687.867188 569.164062 687.746094 574.753906 C 687.792969 577.488281 687.980469 580.214844 688.128906 582.945312 C 688.179688 584.347656 687.476562 586.074219 686.191406 586.777344 C 685.726562 587.035156 685.148438 587.113281 684.695312 586.78125 C 684.261719 586.460938 684.117188 585.941406 684.054688 585.496094 C 683.242188 578.214844 681.921875 570.980469 681.5 563.65625 C 681.210938 561.886719 680.992188 559.941406 680.691406 557.980469 C 680.496094 557.558594 680.410156 557.082031 680.367188 556.621094 C 678.851562 548.460938 673.589844 546.917969 666.292969 545.574219 C 663.363281 544.996094 660.363281 545.140625 657.390625 544.953125 C 655.621094 545.367188 654.429688 545.019531 653.835938 544.125 C 653.203125 544.160156 652.574219 544.214844 651.941406 544.234375 C 650.347656 543.980469 650.191406 541.914062 650.414062 540.652344 C 651.203125 534.820312 657.96875 536.054688 662.269531 535.085938 C 662.585938 535.042969 662.90625 535.007812 663.222656 534.964844 C 663.683594 534.4375 664.210938 534.027344 664.773438 533.84375 C 670.53125 530.4375 675.785156 525.5 678.644531 519.382812 C 678.796875 519.09375 678.9375 518.773438 679.070312 518.429688 C 679.683594 516.558594 680.171875 514.875 680.527344 513.6875 C 681.40625 509.496094 682.535156 505.320312 682.859375 501.035156 C 683.027344 496.835938 682.390625 492.320312 684.125 488.375 C 684.714844 486.800781 687.265625 484.941406 688.433594 486.972656 C 689.3125 489.003906 688.675781 491.308594 688.695312 493.457031 C 688.546875 496.523438 688.445312 499.59375 687.976562 502.636719 C 687.933594 502.8125 687.929688 502.988281 687.898438 503.164062 C 688.183594 503.898438 688.210938 504.824219 688.097656 505.535156 C 688.335938 507.695312 688.648438 509.882812 689.097656 512.011719 C 690.808594 517.875 694.164062 522.101562 698.445312 525.425781 C 699.664062 526.042969 700.941406 526.574219 702.230469 527.019531 C 703.03125 527.386719 703.472656 528.058594 703.679688 528.851562 C 705.03125 529.609375 706.429688 530.328125 707.867188 531.003906 C 711.144531 530.761719 714.417969 530.511719 717.691406 530.230469 C 719.46875 529.804688 720.195312 530.773438 720.230469 532.0625 Z M 727.082031 432.058594 C 714.023438 440.6875 700.125 448.402344 685.894531 454.894531 C 680.304688 456.714844 674.59375 458.363281 668.828125 459.523438 C 667.714844 459.695312 666.609375 458.933594 665.957031 458.113281 C 665.691406 457.71875 665.476562 457.289062 665.285156 456.847656 C 657.21875 459.882812 648.988281 462.527344 640.859375 465.421875 C 641.269531 468.679688 639.992188 472.707031 638.09375 474.605469 C 633.8125 478.644531 627.6875 480.085938 622.324219 482.117188 C 612.433594 485.640625 603.058594 490.625 594.207031 496.246094 C 563.109375 517.492188 538.613281 547.496094 504.46875 564.378906 C 473.347656 580.855469 442.820312 600.050781 407.589844 606.160156 C 390.566406 611.089844 372.613281 611.710938 355.953125 617.964844 C 343.328125 621.679688 331.492188 627.515625 319.070312 631.78125 C 307.65625 635.238281 296.6875 640.003906 286.363281 645.984375 C 273.140625 653.347656 260.078125 660.984375 246.917969 668.386719 C 244 670.789062 239.082031 674.257812 237.222656 668.628906 C 237.152344 668.421875 237.125 668.226562 237.066406 668.023438 C 234.550781 669.726562 231.945312 671.285156 229.15625 672.546875 C 220.328125 675.699219 211.453125 682.554688 201.703125 679.195312 C 199.828125 678.425781 198.050781 677.425781 196.386719 676.257812 C 195.621094 676.882812 194.734375 677.199219 193.800781 676.996094 C 188.796875 675.375 185.683594 671.214844 182.378906 667.429688 C 175.378906 660.351562 172.390625 650.722656 166.757812 642.710938 C 159.421875 631.660156 152.628906 620.277344 146.183594 608.691406 C 139.910156 593.511719 134.902344 576.761719 128.414062 561.179688 C 124.320312 549.613281 117.214844 539.589844 111.785156 528.695312 C 106.816406 519.160156 104.417969 508.296875 99.753906 498.757812 C 96.597656 491.695312 93.355469 484.671875 89.605469 477.90625 C 86.078125 470.726562 84.4375 463.589844 82.28125 456.15625 C 79.960938 448.347656 76.496094 440.976562 73.40625 433.460938 C 68.964844 422.007812 65.300781 410.292969 61.414062 398.65625 C 61.207031 397.816406 61.0625 396.964844 60.953125 396.113281 C 60.925781 395.886719 60.914062 395.65625 60.890625 395.425781 C 60.828125 394.777344 60.777344 394.128906 60.765625 393.476562 C 60.761719 393.257812 60.761719 393.039062 60.761719 392.816406 C 60.765625 392.117188 60.789062 391.414062 60.847656 390.714844 C 60.855469 390.566406 60.867188 390.417969 60.882812 390.269531 C 60.960938 389.417969 61.070312 388.566406 61.21875 387.722656 C 61.085938 387.296875 60.96875 386.863281 60.800781 386.460938 C 57.808594 378.179688 64.28125 371.339844 69.984375 366.246094 C 74.820312 361.414062 80.808594 357.953125 86.742188 354.71875 C 106.894531 343.855469 124.714844 328.085938 147.121094 321.898438 C 162.882812 317.476562 177.660156 310.152344 193.644531 306.773438 C 194.316406 306.625 194.992188 306.503906 195.664062 306.367188 C 195.664062 306.363281 195.664062 306.363281 195.664062 306.363281 C 196.601562 305.984375 197.539062 305.617188 198.484375 305.261719 C 198.582031 305.222656 198.679688 305.191406 198.777344 305.152344 C 199.554688 304.863281 200.339844 304.582031 201.125 304.3125 C 201.375 304.222656 201.628906 304.140625 201.882812 304.054688 C 202.550781 303.832031 203.222656 303.621094 203.898438 303.414062 C 204.164062 303.335938 204.425781 303.253906 204.691406 303.175781 C 205.601562 302.910156 206.519531 302.660156 207.449219 302.433594 C 219.828125 298.957031 232.503906 296.960938 245.066406 294.394531 C 247.503906 293.6875 249.90625 292.890625 252.300781 292.066406 C 252.414062 290.476562 252.8125 288.890625 253.339844 287.585938 C 254.808594 283.019531 259.796875 282.273438 263.824219 281.117188 C 280.488281 274.953125 297.464844 269.675781 314.238281 263.8125 C 329.859375 258.238281 345.273438 251.761719 360.417969 244.9375 C 363.742188 243.019531 367.101562 241.167969 370.542969 239.460938 C 381.082031 234.757812 392.246094 229.316406 401.007812 222.132812 C 406.183594 218.515625 410.699219 214.0625 415.984375 210.621094 C 421.734375 207.0625 428.0625 204.585938 434.042969 201.453125 C 449.839844 193.554688 464 182.820312 479.863281 175.03125 C 484.957031 172.734375 490.066406 170.46875 495.191406 168.226562 C 498.066406 166.140625 500.90625 164.460938 502.296875 163.742188 C 511.652344 158.804688 521.410156 154.648438 530.804688 149.777344 C 542.359375 143.3125 554.59375 139.3125 567.40625 136.417969 C 568.191406 136.183594 568.976562 135.933594 569.757812 135.675781 C 572.375 134.824219 574.992188 133.90625 577.648438 133.195312 C 578.792969 132.679688 579.941406 132.167969 581.097656 131.671875 C 582.09375 131.289062 583.109375 130.933594 584.128906 130.597656 C 584.300781 130.542969 584.46875 130.484375 584.640625 130.429688 C 585.640625 130.109375 586.65625 129.8125 587.675781 129.542969 C 587.824219 129.503906 587.972656 129.46875 588.125 129.429688 C 590.328125 128.867188 592.5625 128.421875 594.816406 128.128906 C 594.851562 128.125 594.886719 128.117188 594.917969 128.113281 C 596.070312 127.964844 597.230469 127.855469 598.386719 127.785156 C 598.421875 127.785156 598.457031 127.78125 598.492188 127.78125 C 602.03125 127.578125 605.582031 127.75 609.058594 128.386719 C 609.816406 128.460938 610.566406 128.625 611.304688 128.867188 C 612.292969 129.105469 613.273438 129.371094 614.246094 129.691406 C 614.992188 129.898438 615.710938 130.164062 616.425781 130.445312 C 617.085938 130.71875 617.734375 131.019531 618.371094 131.339844 C 618.371094 131.339844 618.371094 131.339844 618.371094 131.34375 C 619.09375 131.597656 619.816406 131.847656 620.550781 132.066406 C 628.816406 133.214844 632.058594 139.109375 635.496094 145.953125 C 636.074219 147.078125 636.617188 148.226562 637.144531 149.378906 C 637.640625 150.46875 638.117188 151.570312 638.578125 152.679688 C 638.898438 153.042969 639.207031 153.414062 639.507812 153.792969 C 639.832031 154.214844 640.15625 154.636719 640.457031 155.078125 C 640.699219 155.414062 640.878906 155.777344 640.996094 156.164062 C 641.09375 156.308594 641.195312 156.445312 641.300781 156.574219 C 648.238281 168.195312 654.019531 180.503906 660.046875 192.628906 C 666.5 207.695312 672.011719 223.148438 679.21875 237.894531 C 686.253906 254.8125 691.28125 272.527344 699.660156 288.886719 C 705.980469 300.894531 709.273438 314.0625 714.324219 326.5625 C 715.351562 328.878906 716.464844 331.15625 717.609375 333.410156 C 719.378906 330.59375 722.253906 329.613281 724.359375 334.574219 C 732.578125 349.269531 737.636719 365.441406 743.683594 381.066406 C 751.542969 401.136719 745.230469 420.363281 727.082031 432.058594 Z M 727.082031 432.058594 " fill-opacity="1" fill-rule="nonzero"/></g><g clip-path="url(#c57c74fe6f)"><path fill="#285539" d="M 676.996094 312.804688 C 675.300781 308.039062 673.835938 303.109375 672.328125 298.3125 C 669.585938 290.015625 665.664062 282.183594 662.710938 273.960938 C 656.78125 259.589844 653.164062 244.429688 647.59375 229.941406 C 641.46875 216.761719 635.113281 203.863281 628.980469 190.714844 C 625.832031 184.070312 621.664062 177.769531 619.507812 170.71875 C 619.414062 170.738281 619.324219 170.773438 619.230469 170.785156 C 614.421875 172.039062 610.085938 173.414062 605.304688 174.488281 C 598.609375 175.917969 591.316406 175.105469 585.441406 171.449219 C 581.484375 169.171875 578.691406 165.375 574.957031 162.8125 C 565.035156 169.410156 556.761719 178.207031 546.421875 184.203125 C 529.339844 193.347656 511.058594 200.246094 494.984375 211.238281 C 480.96875 220.136719 465.140625 226.640625 450.207031 233.617188 C 440.289062 238.992188 430.496094 244.636719 420.117188 249.09375 C 410.417969 253.671875 400.023438 256.621094 390.488281 261.5625 C 383.804688 265.1875 377.4375 269.320312 370.792969 273.019531 C 357.445312 280.925781 343.289062 287.148438 329.09375 293.335938 C 321.992188 296.425781 314.160156 298.796875 307.324219 302.359375 C 293.878906 309.367188 281.289062 318.007812 267.410156 324.160156 C 258.0625 327.917969 248.636719 331.429688 239.636719 335.980469 C 230.78125 340.144531 221.664062 343.914062 212.113281 346.160156 C 207.253906 347.273438 202.332031 348.195312 197.589844 349.753906 C 187.925781 352.699219 178.597656 356.558594 169.339844 360.570312 C 163.507812 362.609375 157.472656 364.046875 151.773438 366.496094 C 143.152344 369.378906 134.703125 373.535156 125.503906 373.679688 C 126.8125 383.023438 126.199219 392.8125 122.472656 401.542969 C 118.894531 409.589844 114.890625 417.824219 108.457031 423.984375 C 111.515625 438.945312 120.28125 451.5 125.476562 465.582031 C 128.351562 472.949219 131.464844 480.226562 134.863281 487.363281 C 140.222656 496.78125 146.496094 505.753906 150.382812 515.9375 C 155.519531 530.128906 161.078125 544.144531 168.058594 557.550781 C 173.625 569.171875 179.03125 580.972656 184.554688 592.539062 C 190.023438 603.371094 191.769531 615.480469 196.359375 626.605469 C 200.65625 620.15625 209.097656 619.078125 216.1875 617.964844 C 222.429688 616.4375 227.84375 619.980469 233.214844 622.617188 C 234.359375 621.371094 235.285156 621.1875 236.066406 621.589844 C 238.445312 620.324219 241.261719 619.855469 244.019531 619.242188 C 247.496094 617.515625 250.871094 616.152344 252.589844 615.292969 C 261.0625 611.019531 269.769531 607.3125 278.238281 603.035156 C 287.175781 599.328125 296.773438 597.457031 305.621094 593.5 C 320.023438 587.753906 335.328125 584.609375 350.597656 582.027344 C 359.460938 580.238281 368.421875 578.964844 377.3125 577.277344 C 386.253906 575.101562 395.179688 572.832031 404.164062 570.8125 C 412.554688 568.25 421.367188 567.507812 429.722656 564.804688 C 451.097656 557.527344 467 541.085938 484.714844 528.042969 C 493.199219 521.410156 501.785156 514.269531 510.597656 508.183594 C 522.082031 498.261719 531.9375 486.4375 544.886719 478.242188 C 558.644531 469.765625 573.679688 463.554688 587.238281 454.714844 C 600.609375 447.015625 615.761719 443.203125 629.105469 435.390625 C 639.410156 428.933594 650.789062 424.851562 661.878906 420.027344 C 669.449219 416.429688 677.449219 413.894531 685.71875 412.5625 C 685.308594 409.640625 685.128906 406.695312 685.101562 403.753906 C 685.292969 391.898438 687.335938 378.046875 698.554688 371.574219 C 695.808594 363.738281 693.820312 355.671875 691.015625 347.902344 C 686.617188 336.09375 681.539062 324.554688 676.996094 312.804688 Z M 276.769531 471.589844 C 274.851562 476.386719 271.804688 480.515625 267.8125 483.777344 C 264.210938 486.714844 259.792969 488.691406 255.328125 489.855469 C 253.03125 490.460938 250.59375 490.789062 248.160156 490.789062 C 245.0625 490.789062 241.96875 490.253906 239.167969 489.0625 C 236.703125 488.011719 234.453125 486.570312 232.597656 484.632812 C 230.703125 482.652344 229.296875 480.375 228.25 477.851562 C 227.371094 475.738281 226.914062 473.433594 226.644531 471.167969 C 226.378906 468.875 226.386719 466.546875 226.628906 464.253906 C 227.203125 458.863281 229.082031 453.574219 232.082031 449.042969 C 233.324219 447.175781 234.726562 445.46875 236.304688 443.871094 C 237.960938 442.195312 239.8125 440.789062 241.78125 439.503906 C 243.808594 438.1875 246.09375 437.238281 248.378906 436.503906 C 248.472656 436.480469 248.566406 436.449219 248.65625 436.417969 C 249.054688 435.804688 249.59375 435.269531 250.308594 435.074219 C 250.328125 435.070312 250.347656 435.0625 250.367188 435.058594 C 250.460938 435.039062 250.546875 435.019531 250.640625 435.015625 L 251.601562 434.851562 C 259.261719 433.839844 267.117188 436.667969 272.425781 442.292969 C 279.6875 449.984375 280.574219 462.058594 276.769531 471.589844 Z M 498.578125 358.90625 C 491.65625 371.707031 484.15625 384.117188 476.296875 396.304688 C 476.695312 398.328125 477.082031 400.351562 477.464844 402.375 C 478.476562 407.714844 479.386719 413.082031 479.800781 418.511719 C 480.230469 424.03125 480.148438 429.5625 479.6875 435.070312 C 478.75 446.175781 475.335938 456.828125 470.839844 466.964844 C 469.695312 469.542969 468.460938 472.074219 467.167969 474.585938 C 465.871094 477.101562 464.335938 479.492188 462.746094 481.832031 C 459.597656 486.453125 455.554688 490.527344 450.980469 493.738281 C 446.238281 497.070312 440.746094 499.390625 435.082031 500.609375 C 430.273438 501.640625 425.316406 501.980469 420.40625 501.980469 C 419.9375 501.980469 419.46875 501.980469 419 501.976562 C 413.933594 501.90625 408.835938 501.523438 403.847656 500.582031 C 398.988281 499.671875 394.382812 498.03125 389.914062 495.914062 C 384.972656 493.570312 380.425781 490.589844 376.183594 487.15625 C 371.992188 483.757812 368.324219 479.703125 364.941406 475.527344 C 363.035156 473.175781 361.226562 470.75 359.515625 468.253906 C 341.148438 496.140625 321.347656 522.507812 310.960938 521.28125 C 304.195312 518.121094 305.394531 504.273438 313.390625 503.582031 C 328.785156 490.113281 340.601562 473.054688 352.511719 456.378906 C 351.121094 453.652344 349.796875 450.886719 348.480469 448.125 C 344.328125 439.417969 340.171875 430.640625 337.277344 421.417969 C 335.574219 415.976562 334.414062 410.4375 333.722656 404.777344 C 333.039062 399.144531 333.066406 393.445312 333.339844 387.785156 C 333.582031 382.828125 334.023438 377.871094 334.507812 372.933594 C 335.109375 366.804688 336.140625 360.710938 337.84375 354.78125 C 339.382812 349.449219 341.570312 344.171875 344.539062 339.46875 C 347.085938 335.4375 350.003906 331.679688 353.269531 328.203125 C 356.734375 324.5 360.425781 320.984375 364.492188 317.9375 C 366.480469 316.453125 368.519531 315.046875 370.648438 313.761719 C 372.882812 312.414062 375.238281 311.304688 377.648438 310.308594 C 381.710938 308.625 386.15625 307.984375 390.511719 307.636719 C 395.628906 307.226562 400.734375 307.605469 405.777344 308.515625 C 410.449219 309.351562 414.984375 311.015625 419.273438 313.003906 C 420.933594 313.769531 422.53125 314.65625 424.105469 315.574219 C 424.542969 315.457031 425 315.488281 425.410156 315.738281 C 428.613281 317.65625 431.652344 319.785156 434.554688 322.125 C 443.886719 306.785156 452.867188 291.253906 457.519531 273.761719 C 457.503906 268.558594 461.660156 259.300781 467.359375 265.136719 C 476.957031 277.96875 451.40625 314.996094 444.355469 331.378906 C 444.453125 331.480469 444.554688 331.585938 444.652344 331.6875 C 447.640625 334.835938 450.554688 338.074219 453.304688 341.433594 C 456.753906 345.644531 459.902344 350.121094 462.570312 354.867188 C 465.167969 359.464844 467.378906 364.257812 469.210938 369.207031 C 470.605469 372.964844 471.765625 376.792969 472.789062 380.660156 C 474.347656 378.5 475.886719 376.328125 477.460938 374.183594 C 483.023438 366.335938 488.402344 358.355469 493.171875 349.988281 C 493.730469 349.03125 494.699219 348.144531 495.871094 348.144531 C 500.316406 348.957031 500.484375 355.722656 498.578125 358.90625 Z M 584.710938 326.941406 C 584.332031 331.859375 582.730469 336.574219 580.570312 340.984375 C 576.796875 348.667969 570.023438 355.078125 561.761719 357.574219 C 559.457031 358.265625 557.066406 358.597656 554.675781 358.597656 C 552.382812 358.597656 550.085938 358.296875 547.875 357.691406 C 544.574219 356.796875 541.601562 355.246094 538.84375 353.332031 C 538.667969 353.257812 538.496094 353.144531 538.332031 352.992188 C 538.304688 352.964844 538.277344 352.933594 538.253906 352.910156 C 537.46875 352.34375 536.699219 351.75 535.949219 351.132812 C 534.546875 349.984375 533.234375 348.636719 532.066406 347.246094 C 530.832031 345.769531 529.636719 344.238281 528.652344 342.582031 C 527.578125 340.773438 526.667969 338.929688 525.855469 336.996094 C 524.878906 334.695312 524.347656 332.234375 523.886719 329.785156 C 523.457031 327.550781 523.410156 325.191406 523.515625 322.921875 C 523.632812 320.359375 524.042969 317.804688 524.78125 315.351562 C 526.097656 311.011719 528.328125 307.066406 531.273438 303.621094 C 533.992188 300.421875 537.296875 297.910156 540.992188 295.941406 C 544.316406 294.179688 548.074219 293.289062 551.792969 292.960938 C 555.242188 292.65625 558.800781 293.105469 562.097656 294.125 C 563.027344 294.410156 563.953125 294.75 564.84375 295.160156 C 565.132812 295.085938 565.4375 295.085938 565.726562 295.214844 C 566.382812 295.507812 567.066406 295.738281 567.570312 295.957031 C 567.773438 296.042969 567.980469 296.128906 568.066406 296.167969 C 570.648438 297.265625 572.980469 298.878906 575.109375 300.699219 C 578.675781 303.742188 581.34375 307.953125 582.898438 312.359375 C 584.5625 317.058594 585.097656 321.984375 584.710938 326.941406 Z M 717.339844 343.089844 C 715.203125 340.660156 715.878906 336.160156 717.609375 333.410156 C 716.464844 331.15625 715.351562 328.878906 714.324219 326.5625 C 709.273438 314.058594 705.980469 300.894531 699.660156 288.886719 C 691.28125 272.527344 686.253906 254.8125 679.21875 237.894531 C 672.015625 223.148438 666.5 207.695312 660.046875 192.628906 C 654.019531 180.503906 648.238281 168.195312 641.300781 156.574219 C 641.195312 156.441406 641.09375 156.304688 640.996094 156.164062 C 640.878906 155.777344 640.699219 155.414062 640.457031 155.078125 C 640.15625 154.636719 639.832031 154.210938 639.507812 153.792969 C 639.207031 153.414062 638.898438 153.042969 638.578125 152.679688 C 638.117188 151.570312 637.640625 150.46875 637.144531 149.378906 C 636.617188 148.226562 636.074219 147.078125 635.496094 145.953125 C 632.058594 139.109375 628.816406 133.214844 620.550781 132.0625 C 619.816406 131.847656 619.09375 131.597656 618.371094 131.339844 C 617.734375 131.015625 617.085938 130.71875 616.425781 130.445312 C 615.710938 130.164062 614.992188 129.898438 614.246094 129.691406 C 613.273438 129.371094 612.292969 129.105469 611.304688 128.867188 C 610.566406 128.625 609.816406 128.460938 609.058594 128.386719 C 605.582031 127.75 602.03125 127.578125 598.492188 127.78125 C 598.457031 127.78125 598.421875 127.785156 598.386719 127.785156 C 597.230469 127.855469 596.070312 127.964844 594.917969 128.113281 C 594.882812 128.117188 594.851562 128.125 594.816406 128.128906 C 592.5625 128.421875 590.324219 128.867188 588.125 129.429688 C 587.972656 129.46875 587.824219 129.503906 587.675781 129.542969 C 586.65625 129.8125 585.640625 130.109375 584.640625 130.429688 C 584.46875 130.484375 584.300781 130.542969 584.128906 130.597656 C 583.109375 130.933594 582.09375 131.289062 581.097656 131.671875 C 579.941406 132.167969 578.792969 132.679688 577.648438 133.195312 C 574.992188 133.90625 572.375 134.824219 569.757812 135.675781 C 568.976562 135.933594 568.191406 136.183594 567.40625 136.417969 C 554.59375 139.3125 542.359375 143.3125 530.804688 149.777344 C 521.410156 154.648438 511.652344 158.804688 502.296875 163.742188 C 500.90625 164.460938 498.066406 166.136719 495.191406 168.226562 C 490.066406 170.46875 484.957031 172.734375 479.863281 175.03125 C 464 182.820312 449.839844 193.554688 434.042969 201.453125 C 428.0625 204.585938 421.734375 207.0625 415.984375 210.621094 C 410.699219 214.0625 406.183594 218.515625 401.007812 222.132812 C 392.246094 229.316406 381.082031 234.757812 370.542969 239.460938 C 367.101562 241.167969 363.742188 243.019531 360.417969 244.9375 C 366.957031 241.992188 373.449219 238.988281 379.882812 235.957031 C 389.40625 230.769531 399.1875 225.652344 407.507812 218.625 C 408.402344 217.824219 409.757812 217.488281 410.863281 218.035156 C 412.074219 218.636719 412.695312 220.023438 412.972656 221.273438 C 414.992188 230.394531 404.8125 234.28125 398.390625 237.855469 C 391.601562 241.414062 384.960938 245.214844 378.339844 249.074219 C 364.753906 256.773438 351.324219 264.925781 337.050781 271.289062 C 329.421875 274.21875 321.679688 276.808594 314.199219 280.117188 C 303.496094 284.585938 292.457031 288.25 281.503906 292.085938 C 272.84375 294.328125 264.007812 299.402344 255.046875 298.902344 C 252.757812 297.472656 252.117188 294.757812 252.300781 292.066406 C 249.90625 292.890625 247.503906 293.6875 245.066406 294.394531 C 232.503906 296.960938 219.824219 298.957031 207.445312 302.433594 C 206.519531 302.660156 205.601562 302.910156 204.691406 303.175781 C 204.425781 303.253906 204.164062 303.335938 203.898438 303.414062 C 203.222656 303.621094 202.550781 303.832031 201.882812 304.054688 C 201.628906 304.140625 201.375 304.222656 201.125 304.3125 C 200.335938 304.582031 199.554688 304.863281 198.773438 305.152344 C 198.679688 305.191406 198.582031 305.222656 198.484375 305.261719 C 197.539062 305.617188 196.601562 305.984375 195.664062 306.363281 C 195.664062 306.363281 195.664062 306.367188 195.664062 306.367188 C 194.992188 306.503906 194.316406 306.625 193.644531 306.773438 C 177.660156 310.152344 162.882812 317.476562 147.121094 321.898438 C 124.714844 328.085938 106.894531 343.855469 86.742188 354.71875 C 80.808594 357.953125 74.820312 361.414062 69.984375 366.246094 C 64.28125 371.339844 57.808594 378.179688 60.800781 386.460938 C 60.96875 386.863281 61.085938 387.296875 61.214844 387.722656 C 61.070312 388.566406 60.960938 389.417969 60.878906 390.269531 C 60.867188 390.417969 60.855469 390.566406 60.84375 390.714844 C 60.789062 391.414062 60.765625 392.117188 60.761719 392.816406 C 60.761719 393.039062 60.761719 393.257812 60.765625 393.476562 C 60.777344 394.128906 60.828125 394.777344 60.890625 395.425781 C 60.914062 395.65625 60.925781 395.886719 60.953125 396.113281 C 61.0625 396.964844 61.207031 397.816406 61.414062 398.65625 C 65.300781 410.292969 68.964844 422.007812 73.40625 433.460938 C 76.492188 440.976562 79.960938 448.347656 82.28125 456.15625 C 84.4375 463.589844 86.078125 470.726562 89.605469 477.90625 C 93.355469 484.671875 96.597656 491.695312 99.753906 498.757812 C 104.417969 508.296875 106.816406 519.160156 111.785156 528.695312 C 117.214844 539.589844 124.320312 549.613281 128.410156 561.179688 C 134.902344 576.761719 139.910156 593.511719 146.179688 608.691406 C 152.628906 620.277344 159.421875 631.660156 166.757812 642.710938 C 172.390625 650.722656 175.378906 660.351562 182.378906 667.429688 C 185.683594 671.214844 188.796875 675.375 193.800781 676.996094 C 194.734375 677.199219 195.621094 676.882812 196.386719 676.257812 C 198.050781 677.425781 199.828125 678.425781 201.703125 679.195312 C 211.453125 682.554688 220.328125 675.699219 229.15625 672.546875 C 231.945312 671.285156 234.550781 669.726562 237.066406 668.023438 C 234.550781 658.878906 243.824219 653.011719 250.78125 649.160156 C 256.65625 645.855469 262.128906 641.933594 268.097656 638.800781 C 302.535156 618.542969 341.144531 607.566406 380.042969 599.738281 C 394.367188 596.871094 407.074219 589.625 420.570312 584.390625 C 440.308594 576.488281 459.648438 569.867188 479.027344 561.636719 C 501.0625 551.457031 518.214844 533.589844 538.40625 520.519531 C 561.785156 503.558594 587.902344 490.851562 611.96875 474.90625 C 620.214844 470.199219 628.507812 465.121094 636.691406 460.628906 C 639.320312 460.996094 640.554688 462.996094 640.859375 465.421875 C 648.988281 462.527344 657.21875 459.882812 665.28125 456.847656 C 663.402344 452.53125 664.9375 446.320312 668.878906 443.816406 C 674.988281 441.132812 681.535156 439.589844 687.71875 437.082031 C 695.71875 432.964844 703.484375 428.429688 711.578125 424.476562 C 721.367188 418.6875 736.5 413.230469 736.855469 400 C 732.550781 380.464844 728.371094 360.136719 717.339844 343.089844 Z M 704.320312 374.726562 C 703.558594 376.808594 701.433594 377.621094 699.714844 378.742188 C 697.457031 380.667969 694.964844 382.691406 693.96875 385.582031 C 691.789062 392.886719 691.058594 400.703125 691.1875 408.199219 C 691.359375 410.363281 691.925781 412.824219 691.382812 414.925781 C 691.386719 416.378906 690.742188 417.914062 689.867188 418.949219 C 689.25 419.675781 688.472656 419.980469 687.574219 420.160156 C 684.3125 421.105469 680.9375 421.589844 677.699219 422.609375 C 666.394531 425.269531 656.019531 430.65625 645.144531 434.601562 C 627.460938 440.410156 612.375 450.84375 596.171875 459.621094 C 583.832031 466.746094 569.910156 470.886719 558.558594 479.65625 C 547.554688 487.65625 535.324219 493.78125 524.214844 501.617188 C 508.195312 514.488281 494.378906 529.871094 478.304688 542.679688 C 468.109375 550.644531 456.949219 557.171875 445.257812 562.628906 C 430.53125 570.574219 415.488281 578.09375 399.089844 581.898438 C 392.398438 583.089844 385.554688 583.417969 378.886719 584.808594 C 368.84375 586.503906 359.09375 589.59375 349.097656 591.5 C 345.796875 592.160156 342.464844 592.722656 339.132812 593.273438 C 335.179688 594.441406 331.230469 595.628906 327.21875 596.542969 C 324.320312 597.117188 321.375 597.320312 318.425781 597.53125 C 318.171875 597.789062 317.882812 598.011719 317.566406 598.113281 C 315.070312 598.886719 312.570312 599.671875 310.074219 600.453125 C 308.167969 600.988281 306.277344 601.582031 304.382812 602.179688 C 292.8125 607.523438 281.261719 612.933594 269.949219 618.796875 C 264.363281 621.125 259.328125 622.417969 254.066406 624.710938 C 253.875 624.820312 253.679688 624.921875 253.492188 625.03125 C 249.3125 627.917969 245.027344 630.832031 241.425781 634.421875 C 240.820312 635.152344 239.867188 635.859375 238.871094 635.558594 C 238.0625 636.476562 236.917969 636.734375 235.457031 635.589844 C 235.457031 635.589844 235.578125 635.714844 235.578125 635.714844 C 233.203125 633.230469 230.382812 631.394531 227.429688 629.679688 C 224.683594 627.820312 221.992188 625.5625 218.585938 625.128906 C 211.445312 624.609375 201.480469 623.875 198.03125 631.664062 C 197.707031 632.507812 197.625 633.523438 196.878906 634.089844 C 195.917969 634.894531 194.871094 634.121094 194.457031 633.152344 C 191 626.390625 187.878906 619.527344 185.589844 612.273438 C 182.234375 604.035156 178.519531 595.960938 175.109375 587.75 C 168.703125 573.097656 165.4375 557.0625 156.433594 543.625 C 147.101562 529.953125 141.804688 513.769531 134.5625 499.050781 C 130.085938 490.898438 125.277344 482.890625 121.445312 474.410156 C 117.714844 465.605469 115.257812 456.332031 111.910156 447.382812 C 109.117188 439.410156 105.972656 431.550781 103.527344 423.480469 C 102.503906 419.085938 107.242188 416.609375 109.242188 413.304688 C 113.804688 406.925781 117.191406 400.347656 119.441406 392.910156 C 120.753906 388.15625 120.851562 383.207031 120.660156 378.308594 C 120.667969 375.320312 119.214844 370.828125 122.488281 369.1875 C 122.84375 369.09375 123.164062 369.132812 123.449219 369.238281 C 123.601562 368.703125 123.8125 368.207031 124.046875 367.8125 C 125.726562 364.703125 129.808594 365.15625 132.816406 364.539062 C 140.695312 362.636719 148.292969 359.515625 156.046875 357.117188 C 168.828125 352.824219 181.953125 349.496094 194.609375 344.886719 C 202.972656 341.378906 211.304688 337.824219 219.742188 334.488281 C 229.003906 330.839844 238.730469 328.515625 247.820312 324.433594 C 254.195312 321.375 260.175781 317.523438 266.554688 314.464844 C 276.429688 309.390625 286.832031 305.578125 297.296875 301.929688 C 316.867188 293.910156 334.4375 281.734375 353.695312 272.992188 C 363.5625 268.199219 373.765625 264.144531 383.867188 259.871094 C 399.359375 253.324219 412.648438 243.511719 427.53125 235.949219 C 433.035156 233.25 438.671875 230.902344 444.308594 228.503906 C 454.40625 224.320312 463.863281 218.792969 473.585938 213.832031 C 486.226562 207.570312 499.335938 202.335938 512.105469 196.363281 C 520.136719 192.292969 527.21875 186.523438 534.945312 181.902344 C 541.773438 177.792969 548.675781 173.808594 555.152344 169.148438 C 560.957031 164.589844 567.246094 160.746094 573.105469 156.25 C 574.097656 155.523438 575.242188 154.472656 576.558594 154.53125 C 578.125 154.640625 579.433594 155.59375 580.65625 156.492188 C 587.695312 162.855469 595.882812 166.988281 605.609375 166.011719 C 610.394531 165.335938 615.222656 164.867188 619.972656 163.957031 C 620.582031 163.847656 621.046875 163.753906 621.667969 163.878906 C 621.796875 163.902344 621.910156 163.953125 622.015625 164.015625 C 622.511719 163.816406 623.0625 163.769531 623.667969 163.925781 C 625.511719 164.75 624.785156 167.023438 625.832031 168.464844 C 634.949219 186.140625 643.050781 204.34375 649.996094 222.972656 C 654.605469 235.179688 660.945312 246.609375 665.710938 258.738281 C 667.957031 264.601562 669.328125 270.777344 671.179688 276.773438 C 676.378906 291.167969 684.285156 304.507812 688.171875 319.414062 C 690.765625 328.878906 692.152344 338.664062 695.296875 347.976562 C 696.941406 353.035156 698.863281 357.992188 701.171875 362.785156 C 702.585938 366.550781 706.066406 370.613281 704.320312 374.726562 Z M 704.320312 374.726562 " fill-opacity="1" fill-rule="nonzero"/></g><path fill="#88cf0f" d="M 444.007812 333.496094 C 431.722656 360.308594 415.277344 384.328125 398.09375 408.609375 C 394.886719 412.960938 389.445312 421.71875 382.5625 432.804688 C 375.765625 443.746094 368.058594 456.152344 359.914062 468.515625 C 336.015625 504.796875 320.636719 521.800781 311.6875 521.800781 C 311.417969 521.800781 311.160156 521.785156 310.902344 521.753906 L 310.757812 521.710938 C 306.671875 519.804688 305.574219 514.648438 306.28125 510.664062 C 306.878906 507.296875 309.007812 503.570312 313.191406 503.121094 C 327.628906 490.457031 339.066406 474.414062 350.128906 458.898438 L 352.125 456.101562 C 354.519531 452.746094 357.097656 449.15625 359.722656 445.613281 C 381.179688 417.625 400.402344 385.738281 420.214844 345.253906 C 423.828125 338.761719 427.777344 332.304688 431.59375 326.058594 L 434.148438 321.878906 C 443.578125 306.378906 452.421875 291.03125 457.042969 273.699219 C 457.054688 270.210938 458.921875 264.46875 462.300781 263.089844 C 463.515625 262.59375 465.4375 262.484375 467.703125 264.804688 C 475.128906 274.726562 462.675781 297.71875 452.667969 316.191406 C 449.382812 322.261719 446.542969 327.5 444.792969 331.566406 C 444.507812 332.230469 444.242188 332.871094 444.023438 333.460938 Z M 499.492188 350.574219 C 498.765625 348.96875 497.542969 347.964844 495.957031 347.675781 L 495.871094 347.667969 C 494.683594 347.667969 493.519531 348.445312 492.753906 349.753906 C 487.515625 358.941406 481.621094 367.488281 477.074219 373.898438 C 476.019531 375.339844 474.984375 376.789062 473.945312 378.238281 L 472.40625 380.382812 C 467.988281 386.507812 463.554688 392.777344 459.269531 398.839844 C 452.644531 408.203125 445.796875 417.886719 438.867188 427.261719 C 434.832031 432.707031 430.386719 437.972656 426.085938 443.066406 C 422.109375 447.78125 417.992188 452.65625 414.203125 457.671875 C 412.242188 460.21875 411.484375 464.390625 412.363281 467.820312 C 413.007812 470.34375 414.484375 472.230469 416.519531 473.125 L 416.679688 473.164062 C 416.800781 473.171875 416.917969 473.175781 417.035156 473.175781 C 419.957031 473.175781 421.921875 470.804688 423.824219 468.503906 C 424.820312 467.304688 425.761719 466.167969 426.875 465.332031 C 436.769531 454.386719 446.054688 442.308594 454.46875 429.4375 C 463.003906 417.277344 470.277344 406.523438 476.699219 396.5625 C 485.296875 383.226562 492.589844 370.984375 498.988281 359.152344 C 500.214844 357.101562 500.738281 353.332031 499.492188 350.574219 Z M 499.492188 350.574219 " fill-opacity="1" fill-rule="nonzero"/><path fill="#ffde59" d="M 480.277344 418.472656 C 480.683594 423.730469 480.648438 429.328125 480.164062 435.109375 C 479.320312 445.089844 476.414062 455.570312 471.273438 467.15625 C 470.214844 469.546875 469.011719 472.046875 467.589844 474.804688 C 466.179688 477.542969 464.46875 480.140625 463.140625 482.101562 C 459.992188 486.71875 455.882812 490.878906 451.257812 494.128906 C 446.5625 497.421875 441.003906 499.824219 435.183594 501.074219 C 430.839844 502.003906 426.007812 502.457031 420.40625 502.457031 C 419.9375 502.457031 419.460938 502.457031 418.996094 502.453125 C 413.34375 502.375 408.359375 501.917969 403.757812 501.050781 C 399.167969 500.1875 394.570312 498.648438 389.710938 496.34375 C 384.949219 494.089844 380.425781 491.203125 375.882812 487.527344 C 372.25 484.582031 368.652344 480.863281 364.570312 475.828125 C 362.679688 473.496094 360.847656 471.039062 359.125 468.523438 L 358.941406 468.261719 L 359.117188 467.992188 C 367.257812 455.640625 374.957031 443.238281 381.75 432.300781 C 388.648438 421.195312 394.09375 412.425781 397.320312 408.050781 C 414.472656 383.8125 430.890625 359.835938 443.144531 333.097656 C 443.355469 332.523438 443.625 331.867188 443.917969 331.191406 L 444.203125 330.53125 L 445 331.359375 C 448.3125 334.851562 451.148438 338.046875 453.675781 341.128906 C 457.3125 345.574219 460.445312 350.117188 462.988281 354.632812 C 465.5625 359.191406 467.804688 364.039062 469.65625 369.042969 C 470.953125 372.527344 472.125 376.289062 473.253906 380.539062 L 473.308594 380.757812 L 473.179688 380.9375 C 468.765625 387.0625 464.332031 393.332031 460.046875 399.390625 C 453.421875 408.757812 446.570312 418.445312 439.636719 427.832031 C 435.578125 433.300781 431.125 438.578125 426.816406 443.679688 C 422.84375 448.386719 418.738281 453.253906 414.960938 458.25 C 413.164062 460.582031 412.476562 464.417969 413.285156 467.582031 C 413.6875 469.144531 414.625 471.210938 416.828125 472.214844 C 419.429688 472.324219 421.199219 470.179688 423.089844 467.894531 C 424.078125 466.703125 425.097656 465.46875 426.234375 464.628906 C 436.027344 453.785156 445.28125 441.742188 453.679688 428.898438 C 462.21875 416.738281 469.480469 405.996094 475.898438 396.046875 L 476.539062 395.050781 L 476.765625 396.210938 C 477.164062 398.238281 477.550781 400.261719 477.933594 402.285156 C 478.894531 407.351562 479.84375 412.820312 480.277344 418.472656 Z M 251.523438 434.382812 L 250.609375 434.535156 C 250.5 434.542969 250.398438 434.5625 250.183594 434.613281 C 249.480469 434.804688 248.867188 435.277344 248.351562 436.015625 C 248.316406 436.027344 248.277344 436.039062 248.230469 436.050781 C 245.558594 436.90625 243.363281 437.90625 241.519531 439.105469 C 239.257812 440.582031 237.492188 441.992188 235.964844 443.535156 C 234.328125 445.191406 232.929688 446.90625 231.683594 448.78125 C 228.65625 453.347656 226.746094 458.679688 226.152344 464.207031 C 225.898438 466.589844 225.90625 468.949219 226.171875 471.222656 C 226.488281 473.917969 227.023438 476.144531 227.808594 478.035156 C 228.9375 480.753906 230.390625 483.019531 232.25 484.964844 C 234.046875 486.839844 236.3125 488.363281 238.980469 489.5 C 241.730469 490.671875 244.820312 491.265625 248.160156 491.265625 C 250.601562 491.265625 253.050781 490.945312 255.449219 490.320312 C 260.355469 489.035156 264.734375 486.902344 268.113281 484.144531 C 272.195312 480.8125 275.257812 476.648438 277.210938 471.765625 C 281.425781 461.214844 279.640625 449.238281 272.773438 441.964844 C 267.3125 436.179688 259.371094 433.347656 251.523438 434.382812 Z M 117.894531 274.425781 C 119.246094 277.605469 120.128906 281.132812 120.675781 285.527344 C 120.925781 287.550781 121.425781 289.546875 121.902344 291.480469 C 122.164062 292.527344 122.425781 293.574219 122.648438 294.628906 L 122.703125 294.914062 C 122.726562 295.042969 122.75 295.171875 122.773438 295.269531 C 123.507812 299.921875 124.175781 304.480469 124.324219 309.1875 C 124.476562 309.847656 124.78125 310.765625 125.707031 311.128906 L 125.855469 311.160156 C 125.945312 311.164062 126.035156 311.167969 126.121094 311.167969 C 127.167969 311.167969 128.039062 310.789062 128.710938 310.035156 C 131.761719 306.632812 130 296.304688 128.835938 289.46875 C 128.515625 287.589844 128.265625 286.105469 128.199219 285.25 C 128.113281 282.726562 128.148438 280.046875 128.3125 276.59375 L 128.351562 276.1875 C 128.941406 271.734375 129.554688 267.132812 131.746094 263.308594 C 132.902344 262.148438 134.234375 261.042969 135.703125 260.027344 C 137.71875 259.792969 139.578125 259.328125 141.378906 258.882812 C 143.371094 258.390625 145.429688 257.878906 147.757812 257.652344 C 148.277344 257.585938 148.796875 257.535156 149.316406 257.480469 C 152.570312 257.148438 155.929688 256.804688 157.015625 253.09375 C 157.726562 253.039062 158.359375 253.023438 159.011719 253.039062 C 159.941406 252.988281 160.792969 252.480469 161.414062 251.613281 C 162.226562 250.472656 162.539062 248.867188 162.179688 247.59375 C 161.972656 246.972656 161.441406 246.242188 160.648438 246.242188 C 159.503906 246.195312 158.398438 246.25 157.535156 246.308594 C 157.28125 246.203125 157.035156 246.148438 156.75 246.132812 C 155.203125 246.105469 153.625 246.152344 152.101562 246.191406 L 151.710938 246.203125 L 151.425781 246.203125 C 151.195312 246.203125 150.960938 246.199219 150.730469 246.203125 C 149.574219 245.890625 148.457031 245.425781 147.582031 245.039062 C 147.191406 244.472656 146.492188 243.890625 145.257812 244.035156 L 144.90625 243.890625 C 142.457031 242.90625 139.921875 241.890625 137.785156 240.203125 C 132.34375 236.652344 128.863281 230.261719 127.980469 222.175781 C 127.230469 218.023438 126.15625 213.882812 125.121094 209.878906 C 124.492188 207.453125 123.839844 204.945312 123.28125 202.511719 C 123.25 202.269531 123.199219 202.03125 123.136719 201.808594 C 123.28125 200.597656 122.75 199.304688 121.839844 198.703125 C 121.105469 198.214844 120.246094 198.230469 119.421875 198.742188 C 115.746094 201.003906 116.449219 205.910156 116.804688 207.527344 C 115.710938 210.84375 116.324219 214.34375 116.996094 217.046875 C 116.941406 219.328125 116.789062 221.042969 116.496094 222.644531 C 116.074219 228.488281 110.714844 245.957031 105.296875 249.398438 C 104.914062 249.46875 104.484375 249.578125 103.933594 249.75 C 102.828125 249.316406 101.6875 249.6875 100.695312 250.800781 C 99.710938 251.035156 98.746094 251.148438 97.816406 251.257812 L 97.6875 251.273438 C 96.441406 251.382812 95.148438 251.457031 93.773438 251.507812 C 93.402344 251.5 93.027344 251.484375 92.648438 251.46875 C 89.519531 251.335938 85.953125 251.183594 84.953125 255.585938 C 84.597656 256.773438 84.542969 258.445312 85.214844 259.515625 C 85.582031 260.097656 86.136719 260.460938 86.863281 260.574219 C 88.925781 260.714844 90.777344 260.785156 92.527344 260.792969 C 93.476562 261.207031 94.703125 261.191406 96.007812 261.179688 C 96.601562 261.175781 97.214844 261.167969 97.816406 261.203125 C 103.21875 261.445312 108.285156 263.140625 112.003906 265.902344 C 114.265625 268.652344 116.417969 271.371094 117.894531 274.425781 Z M 421.0625 345.695312 C 424.65625 339.242188 428.597656 332.792969 432.410156 326.558594 L 435.179688 322.015625 L 434.855469 321.753906 C 431.941406 319.40625 428.84375 317.242188 425.65625 315.328125 C 425.214844 315.0625 424.714844 314.972656 424.183594 315.070312 C 422.808594 314.269531 421.1875 313.359375 419.472656 312.570312 C 414.53125 310.28125 410.078125 308.800781 405.863281 308.042969 C 400.390625 307.058594 395.355469 306.769531 390.472656 307.164062 C 386.734375 307.460938 381.878906 308.039062 377.464844 309.867188 C 374.738281 310.992188 372.425781 312.132812 370.402344 313.355469 C 368.402344 314.5625 366.375 315.933594 364.207031 317.554688 C 360.546875 320.296875 356.855469 323.671875 352.921875 327.875 C 349.628906 331.382812 346.671875 335.199219 344.132812 339.214844 C 341.332031 343.652344 339.058594 348.84375 337.382812 354.648438 C 335.785156 360.210938 334.691406 366.175781 334.03125 372.886719 C 333.597656 377.332031 333.113281 382.574219 332.863281 387.761719 C 332.535156 394.53125 332.65625 399.957031 333.25 404.835938 C 333.953125 410.605469 335.152344 416.230469 336.820312 421.558594 C 339.789062 431.015625 344.179688 440.214844 348.050781 448.328125 C 349.460938 451.292969 350.738281 453.957031 352.085938 456.597656 L 352.441406 457.296875 L 352.898438 456.65625 C 355.289062 453.304688 357.867188 449.71875 360.488281 446.183594 C 381.976562 418.152344 401.230469 386.214844 421.0625 345.695312 Z M 720.703125 531.902344 C 720.648438 531.097656 720.355469 530.46875 719.847656 530.078125 C 719.28125 529.644531 718.515625 529.539062 717.652344 529.753906 C 714.421875 530.035156 711.1875 530.28125 707.957031 530.519531 C 706.601562 529.878906 705.300781 529.207031 704.082031 528.53125 C 703.796875 527.621094 703.226562 526.953125 702.386719 526.570312 C 701.058594 526.109375 699.808594 525.582031 698.738281 525.046875 C 694.089844 521.441406 691.089844 517.132812 689.566406 511.914062 C 689.167969 510.027344 688.84375 507.945312 688.578125 505.542969 C 688.703125 504.707031 688.628906 503.816406 688.390625 503.117188 C 688.394531 503.074219 688.398438 503.027344 688.40625 502.988281 C 688.414062 502.90625 688.421875 502.824219 688.449219 502.710938 C 688.867188 500 688.996094 497.234375 689.121094 494.558594 L 689.171875 493.453125 C 689.167969 492.824219 689.21875 492.191406 689.273438 491.519531 C 689.398438 489.941406 689.53125 488.308594 688.847656 486.734375 C 688.390625 485.941406 687.664062 485.523438 686.84375 485.613281 C 685.492188 485.722656 684.113281 487.042969 683.6875 488.183594 C 682.351562 491.226562 682.378906 494.574219 682.40625 497.808594 C 682.414062 498.886719 682.421875 499.960938 682.382812 501 C 682.132812 504.261719 681.402344 507.535156 680.695312 510.691406 C 680.476562 511.660156 680.261719 512.625 680.070312 513.550781 L 679.835938 514.335938 C 679.511719 515.429688 679.105469 516.796875 678.625 518.257812 C 678.5 518.578125 678.367188 518.882812 678.210938 519.179688 C 675.648438 524.667969 670.789062 529.730469 664.625 533.390625 C 664.054688 533.578125 663.503906 533.957031 662.984375 534.515625 L 662.167969 534.621094 C 661.15625 534.847656 660.007812 534.949219 658.792969 535.058594 C 654.949219 535.402344 650.589844 535.789062 649.945312 540.570312 C 649.769531 541.554688 649.8125 542.929688 650.453125 543.828125 C 650.796875 544.308594 651.285156 544.613281 651.957031 544.710938 C 652.34375 544.699219 652.730469 544.675781 653.117188 544.648438 L 653.609375 544.617188 C 654.121094 545.222656 655.214844 545.933594 657.429688 545.433594 C 658.347656 545.492188 659.265625 545.515625 660.183594 545.542969 C 662.171875 545.597656 664.230469 545.652344 666.207031 546.042969 C 673.53125 547.390625 678.441406 548.863281 679.890625 556.664062 C 679.945312 557.234375 680.054688 557.710938 680.230469 558.117188 C 680.363281 559 680.480469 559.878906 680.597656 560.742188 C 680.738281 561.769531 680.875 562.777344 681.023438 563.6875 C 681.296875 568.375 681.941406 573.097656 682.566406 577.664062 C 682.921875 580.246094 683.289062 582.917969 683.582031 585.5625 C 683.683594 586.304688 683.957031 586.828125 684.414062 587.167969 C 684.703125 587.375 685.039062 587.480469 685.390625 587.480469 C 685.730469 587.480469 686.082031 587.382812 686.421875 587.195312 C 687.925781 586.371094 688.660156 584.425781 688.609375 582.917969 L 688.503906 581.101562 C 688.382812 579.019531 688.257812 576.867188 688.222656 574.765625 C 688.253906 573.28125 688.253906 571.699219 688.253906 570.058594 C 688.246094 565.582031 688.242188 560.511719 688.941406 555.941406 C 689.761719 553.8125 691.617188 551.539062 693.253906 549.53125 C 693.683594 549 694.101562 548.484375 694.433594 548.050781 C 698.199219 544.601562 703.394531 542.855469 707.867188 541.511719 L 708.464844 541.621094 L 708.464844 541.410156 C 714 541.351562 720.386719 540.464844 721.226562 534.34375 L 721.234375 534.308594 C 721.292969 533.359375 721.109375 532.527344 720.703125 531.902344 Z M 656.488281 430.605469 C 652.847656 432.117188 649.078125 433.683594 645.308594 435.050781 C 632.484375 439.261719 620.804688 446.042969 609.511719 452.597656 C 605.242188 455.078125 600.828125 457.640625 596.398438 460.039062 C 591.582031 462.820312 586.441406 465.1875 581.46875 467.472656 C 573.734375 471.035156 565.734375 474.714844 558.851562 480.035156 C 553.066406 484.242188 546.859375 487.980469 540.859375 491.597656 C 535.410156 494.882812 529.773438 498.28125 524.488281 502.007812 C 516.621094 508.332031 509.128906 515.410156 501.886719 522.257812 C 494.445312 529.285156 486.753906 536.554688 478.601562 543.054688 C 468.890625 550.636719 458.050781 557.179688 445.457031 563.0625 C 432 570.324219 416.191406 578.417969 399.195312 582.359375 C 396.15625 582.90625 393.0625 583.273438 390.070312 583.628906 C 386.414062 584.066406 382.636719 584.515625 378.984375 585.277344 C 373.550781 586.195312 368.121094 587.539062 362.875 588.839844 C 358.410156 589.945312 353.789062 591.089844 349.1875 591.96875 C 345.835938 592.636719 342.410156 593.214844 339.210938 593.742188 L 338.570312 593.9375 C 334.90625 595.023438 331.117188 596.144531 327.324219 597.011719 C 324.4375 597.578125 321.488281 597.789062 318.632812 597.996094 C 318.320312 598.285156 318.023438 598.46875 317.707031 598.566406 L 310.21875 600.90625 C 308.242188 601.464844 306.269531 602.085938 304.527344 602.632812 C 293.550781 607.707031 281.804688 613.191406 270.167969 619.21875 C 267.445312 620.355469 264.871094 621.242188 262.378906 622.101562 C 259.605469 623.058594 256.984375 623.960938 254.253906 625.152344 L 253.292969 625.746094 C 249.3125 628.496094 245.199219 631.335938 241.761719 634.757812 C 241.382812 635.222656 240.324219 636.28125 239.03125 636.082031 C 238.519531 636.574219 237.925781 636.824219 237.296875 636.824219 C 236.648438 636.824219 235.949219 636.558594 235.25 636.03125 L 235.234375 636.046875 C 232.8125 633.515625 229.9375 631.6875 227.191406 630.09375 C 226.730469 629.78125 226.300781 629.476562 225.867188 629.175781 C 223.609375 627.589844 221.28125 625.953125 218.527344 625.605469 C 211.460938 625.089844 201.78125 624.382812 198.46875 631.855469 C 198.394531 632.050781 198.328125 632.277344 198.261719 632.503906 C 198.0625 633.1875 197.839844 633.960938 197.167969 634.46875 C 196.597656 634.949219 196.023438 634.945312 195.644531 634.855469 C 194.976562 634.699219 194.351562 634.117188 194.019531 633.339844 C 189.957031 625.40625 187.128906 618.746094 185.132812 612.417969 C 183.332031 608 181.378906 603.515625 179.492188 599.179688 C 177.890625 595.503906 176.234375 591.703125 174.667969 587.933594 C 172.40625 582.757812 170.503906 577.320312 168.664062 572.0625 C 165.304688 562.464844 161.832031 552.539062 156.035156 543.890625 C 149.804688 534.757812 145.3125 524.386719 140.964844 514.359375 C 138.796875 509.351562 136.554688 504.175781 134.136719 499.261719 C 133.023438 497.238281 131.882812 495.203125 130.738281 493.167969 C 127.371094 487.175781 123.894531 480.980469 121.011719 474.609375 C 118.804688 469.394531 117.015625 463.949219 115.285156 458.683594 C 114.082031 455.015625 112.835938 451.222656 111.460938 447.554688 C 110.519531 444.855469 109.539062 442.183594 108.558594 439.507812 C 106.660156 434.335938 104.695312 428.980469 103.070312 423.617188 C 102.308594 420.339844 104.40625 418.113281 106.4375 415.960938 C 107.355469 414.988281 108.226562 414.066406 108.835938 413.058594 C 113.523438 406.5 116.835938 399.871094 118.988281 392.773438 C 120.347656 387.84375 120.355469 382.703125 120.183594 378.328125 C 120.183594 377.648438 120.113281 376.90625 120.035156 376.125 C 119.777344 373.472656 119.457031 370.175781 122.277344 368.761719 C 122.585938 368.671875 122.871094 368.648438 123.132812 368.675781 C 123.273438 368.269531 123.445312 367.890625 123.640625 367.566406 C 125.027344 364.992188 127.933594 364.671875 130.496094 364.382812 C 131.285156 364.296875 132.03125 364.214844 132.722656 364.070312 C 137.648438 362.882812 142.570312 361.175781 147.328125 359.527344 C 150.132812 358.554688 153.03125 357.550781 155.90625 356.660156 C 161.382812 354.820312 167.023438 353.128906 172.476562 351.492188 C 179.730469 349.316406 187.230469 347.066406 194.449219 344.4375 L 199.164062 342.457031 C 205.828125 339.652344 212.71875 336.753906 219.566406 334.046875 C 223.554688 332.472656 227.691406 331.128906 231.6875 329.824219 C 236.984375 328.101562 242.457031 326.316406 247.625 324 C 250.789062 322.480469 253.917969 320.730469 256.949219 319.039062 C 259.992188 317.335938 263.144531 315.574219 266.347656 314.035156 C 276.527344 308.800781 287.144531 304.964844 297.140625 301.480469 C 307.785156 297.121094 318.039062 291.410156 327.953125 285.882812 C 336.210938 281.285156 344.746094 276.53125 353.496094 272.558594 C 361.09375 268.867188 369.027344 265.558594 376.695312 262.359375 C 379.027344 261.386719 381.359375 260.414062 383.683594 259.429688 C 392.773438 255.589844 401.261719 250.527344 409.46875 245.628906 C 415.226562 242.195312 421.179688 238.644531 427.316406 235.527344 C 432.214844 233.121094 437.300781 230.960938 442.21875 228.875 L 444.121094 228.066406 C 451.207031 225.128906 458.09375 221.46875 464.753906 217.925781 C 467.570312 216.429688 470.480469 214.882812 473.371094 213.410156 C 480.746094 209.753906 488.398438 206.398438 495.796875 203.152344 C 501.09375 200.828125 506.578125 198.421875 511.90625 195.929688 C 516.65625 193.523438 521.171875 190.449219 525.539062 187.472656 C 528.507812 185.453125 531.574219 183.363281 534.699219 181.492188 L 537.855469 179.601562 C 543.535156 176.207031 549.410156 172.695312 554.875 168.761719 C 557.914062 166.375 561.148438 164.140625 564.28125 161.980469 C 567.113281 160.027344 570.039062 158.003906 572.816406 155.875 L 573.257812 155.539062 C 574.207031 154.816406 575.265625 153.996094 576.578125 154.054688 C 578.304688 154.175781 579.703125 155.203125 580.941406 156.109375 C 588.925781 163.324219 596.964844 166.398438 605.5625 165.539062 C 607.105469 165.320312 608.667969 165.121094 610.234375 164.921875 C 613.410156 164.515625 616.695312 164.097656 619.882812 163.492188 C 620.546875 163.367188 621.070312 163.269531 621.761719 163.410156 C 621.859375 163.429688 621.953125 163.460938 622.050781 163.5 C 622.605469 163.320312 623.191406 163.308594 623.789062 163.464844 C 625.191406 164.085938 625.414062 165.300781 625.613281 166.375 C 625.738281 167.050781 625.859375 167.691406 626.21875 168.1875 C 635.460938 186.09375 643.597656 204.449219 650.445312 222.808594 C 652.855469 229.191406 655.792969 235.476562 658.632812 241.554688 C 661.214844 247.074219 663.886719 252.785156 666.15625 258.5625 C 667.617188 262.375 668.722656 266.367188 669.792969 270.226562 C 670.378906 272.335938 670.980469 274.515625 671.636719 276.632812 C 673.714844 282.386719 676.285156 288.09375 678.769531 293.617188 C 682.472656 301.839844 686.300781 310.347656 688.632812 319.292969 C 689.691406 323.15625 690.5625 327.132812 691.410156 330.984375 C 692.632812 336.5625 693.894531 342.328125 695.75 347.824219 C 697.5 353.203125 699.414062 358.027344 701.601562 362.578125 C 701.988281 363.597656 702.496094 364.589844 703.03125 365.644531 C 704.554688 368.617188 706.128906 371.691406 704.757812 374.914062 C 704.105469 376.699219 702.5625 377.605469 701.066406 378.480469 C 700.695312 378.695312 700.328125 378.914062 699.976562 379.140625 L 699.71875 379.363281 C 697.5625 381.203125 695.328125 383.101562 694.417969 385.738281 C 692.453125 392.339844 691.523438 399.902344 691.664062 408.191406 C 691.707031 408.699219 691.773438 409.257812 691.84375 409.820312 C 692.050781 411.550781 692.269531 413.339844 691.859375 414.988281 C 691.847656 416.449219 691.226562 418.078125 690.230469 419.257812 C 689.460938 420.167969 688.472656 420.46875 687.6875 420.625 C 686.171875 421.0625 684.617188 421.40625 683.109375 421.738281 C 681.367188 422.125 679.5625 422.523438 677.839844 423.0625 C 670.449219 424.804688 663.351562 427.753906 656.488281 430.605469 Z M 619.183594 171.285156 C 617.484375 171.734375 615.792969 172.207031 614.121094 172.679688 C 611.1875 173.5 608.414062 174.277344 605.40625 174.953125 C 598.199219 176.496094 590.828125 175.367188 585.1875 171.855469 C 582.96875 170.578125 581.089844 168.808594 579.269531 167.097656 C 577.902344 165.808594 576.488281 164.480469 574.949219 163.386719 C 570.695312 166.246094 566.667969 169.558594 562.773438 172.765625 C 557.710938 176.933594 552.472656 181.242188 546.664062 184.613281 C 540.59375 187.863281 534.292969 190.867188 528.195312 193.777344 C 517.089844 199.074219 505.609375 204.550781 495.25 211.632812 C 484.207031 218.648438 471.960938 224.214844 460.117188 229.59375 C 456.859375 231.078125 453.613281 232.550781 450.410156 234.046875 C 448.617188 235.019531 446.804688 236.015625 444.992188 237.007812 C 437.03125 241.371094 428.804688 245.882812 420.304688 249.53125 C 415.941406 251.589844 411.359375 253.351562 406.929688 255.054688 C 401.523438 257.128906 395.933594 259.277344 390.710938 261.984375 C 387.128906 263.925781 383.566406 266.058594 380.121094 268.117188 C 377.160156 269.890625 374.097656 271.722656 371.023438 273.433594 C 357.320312 281.554688 342.425781 288.046875 329.285156 293.773438 C 326.511719 294.976562 323.582031 296.09375 320.75 297.171875 C 316.300781 298.867188 311.699219 300.617188 307.542969 302.78125 C 302.222656 305.558594 296.941406 308.640625 291.835938 311.625 C 284.050781 316.171875 276.003906 320.871094 267.605469 324.597656 C 265.859375 325.296875 264.125 325.984375 262.394531 326.671875 C 254.90625 329.640625 247.167969 332.707031 239.851562 336.40625 C 232.46875 339.878906 222.667969 344.171875 212.222656 346.625 C 211.09375 346.882812 209.960938 347.132812 208.828125 347.378906 C 205.15625 348.183594 201.359375 349.019531 197.738281 350.207031 C 188.554688 353.007812 179.820312 356.550781 169.527344 361.007812 C 167.304688 361.785156 165.054688 362.476562 162.875 363.144531 C 159.253906 364.257812 155.503906 365.410156 151.960938 366.933594 C 149.882812 367.628906 147.808594 368.398438 145.808594 369.144531 C 139.480469 371.492188 132.945312 373.917969 126.046875 374.140625 C 127.382812 384.257812 126.300781 393.789062 122.910156 401.730469 C 119.390625 409.652344 115.417969 417.894531 108.976562 424.144531 C 110.867188 433.179688 114.917969 441.496094 118.835938 449.542969 C 121.332031 454.667969 123.914062 459.96875 125.921875 465.417969 C 128.878906 472.988281 132.03125 480.304688 135.292969 487.15625 C 136.75 489.714844 138.320312 492.316406 139.839844 494.832031 C 143.851562 501.476562 147.996094 508.347656 150.828125 515.765625 C 155.0625 527.464844 160.890625 542.75 168.480469 557.328125 C 171.339844 563.292969 174.191406 569.386719 176.949219 575.277344 C 179.621094 580.988281 182.289062 586.6875 184.984375 592.332031 C 188.101562 598.5 190.042969 605.179688 191.917969 611.640625 C 193.265625 616.277344 194.660156 621.058594 196.476562 625.621094 C 200.828125 619.875 208.488281 618.679688 215.273438 617.625 L 216.113281 617.496094 C 221.625 616.140625 226.480469 618.640625 231.183594 621.054688 C 231.828125 621.386719 232.472656 621.714844 233.113281 622.035156 C 234.136719 621.03125 235.121094 620.703125 236.046875 621.058594 C 238.082031 620.03125 240.410156 619.53125 242.664062 619.046875 L 243.914062 618.773438 C 245.839844 617.804688 247.863281 616.910156 249.488281 616.1875 C 250.664062 615.667969 251.664062 615.222656 252.378906 614.867188 C 256.613281 612.730469 260.972656 610.703125 265.191406 608.742188 C 269.417969 606.777344 273.785156 604.746094 278.023438 602.609375 C 282.261719 600.851562 286.671875 599.492188 290.941406 598.175781 C 295.761719 596.691406 300.746094 595.15625 305.425781 593.0625 C 320.261719 587.140625 335.867188 584.035156 350.515625 581.558594 C 355.445312 580.5625 360.492188 579.710938 365.378906 578.886719 C 369.265625 578.230469 373.285156 577.554688 377.226562 576.808594 C 379.640625 576.21875 382.078125 575.621094 384.515625 575.019531 C 390.910156 573.445312 397.523438 571.816406 404.058594 570.34375 C 408.082031 569.117188 412.296875 568.289062 416.371094 567.492188 C 420.742188 566.632812 425.265625 565.746094 429.574219 564.351562 C 445.230469 559.019531 458.15625 548.566406 470.65625 538.457031 C 475.132812 534.839844 479.757812 531.101562 484.433594 527.65625 C 486.585938 525.972656 488.761719 524.246094 490.941406 522.511719 C 497.242188 517.507812 503.75 512.332031 510.324219 507.792969 C 514.226562 504.417969 518.046875 500.71875 521.738281 497.144531 C 528.796875 490.308594 536.097656 483.238281 544.632812 477.835938 C 551.023438 473.902344 557.789062 470.398438 564.328125 467.011719 C 571.894531 463.097656 579.71875 459.046875 586.980469 454.316406 C 593.625 450.488281 600.785156 447.582031 607.710938 444.769531 C 614.796875 441.894531 622.125 438.921875 628.859375 434.980469 C 636.777344 430.019531 645.464844 426.398438 653.867188 422.894531 C 656.476562 421.808594 659.089844 420.71875 661.6875 419.585938 C 669.234375 416.003906 677.140625 413.507812 685.179688 412.167969 C 684.832031 409.527344 684.652344 406.773438 684.625 403.757812 C 684.796875 393.152344 686.375 378.320312 697.976562 371.363281 C 696.714844 367.726562 695.59375 363.996094 694.511719 360.386719 C 693.289062 356.320312 692.027344 352.113281 690.566406 348.066406 C 688.105469 341.464844 685.390625 334.832031 682.761719 328.417969 C 680.691406 323.371094 678.550781 318.152344 676.550781 312.976562 C 675.234375 309.28125 674.050781 305.464844 672.902344 301.769531 C 672.558594 300.660156 672.214844 299.554688 671.871094 298.457031 C 670.378906 293.9375 668.492188 289.464844 666.671875 285.144531 C 665.164062 281.558594 663.601562 277.855469 662.261719 274.121094 C 659.050781 266.339844 656.472656 258.175781 653.976562 250.285156 C 651.875 243.625 649.695312 236.742188 647.148438 230.117188 C 644 223.34375 640.726562 216.503906 637.554688 209.890625 C 634.585938 203.691406 631.515625 197.28125 628.546875 190.917969 C 627.503906 188.710938 626.324219 186.5 625.179688 184.359375 C 622.949219 180.183594 620.644531 175.867188 619.183594 171.285156 Z M 619.394531 170.746094 Z M 575.417969 300.335938 C 572.96875 298.246094 570.625 296.738281 568.253906 295.726562 L 567.757812 295.515625 C 567.53125 295.417969 567.265625 295.320312 566.984375 295.210938 C 566.644531 295.082031 566.277344 294.941406 565.921875 294.78125 C 565.609375 294.636719 565.265625 294.597656 564.894531 294.660156 C 564.078125 294.292969 563.183594 293.957031 562.238281 293.667969 C 558.765625 292.59375 555.140625 292.1875 551.75 292.484375 C 547.558594 292.855469 543.863281 293.878906 540.769531 295.523438 C 536.84375 297.613281 533.523438 300.234375 530.90625 303.308594 C 527.847656 306.890625 525.632812 310.898438 524.324219 315.214844 C 523.59375 317.640625 523.160156 320.226562 523.035156 322.902344 C 522.910156 325.601562 523.035156 327.882812 523.417969 329.875 C 523.839844 332.125 524.378906 334.730469 525.414062 337.183594 C 526.28125 339.242188 527.207031 341.085938 528.242188 342.824219 C 529.3125 344.625 530.589844 346.226562 531.703125 347.550781 C 532.984375 349.082031 534.3125 350.410156 535.644531 351.503906 C 536.429688 352.144531 537.210938 352.746094 537.914062 353.246094 L 538.003906 353.335938 C 538.199219 353.523438 538.417969 353.667969 538.570312 353.722656 C 541.660156 355.867188 544.664062 357.316406 547.746094 358.152344 C 549.996094 358.765625 552.328125 359.074219 554.675781 359.074219 C 557.152344 359.074219 559.582031 358.726562 561.898438 358.03125 C 569.863281 355.625 577.003906 349.328125 580.996094 341.195312 C 583.46875 336.152344 584.839844 331.503906 585.1875 326.980469 C 585.589844 321.765625 584.972656 316.792969 583.347656 312.199219 C 581.6875 307.5 578.875 303.289062 575.417969 300.335938 Z M 575.417969 300.335938 " fill-opacity="1" fill-rule="nonzero"/><path fill="#000001" d="M 727.339844 432.460938 C 714.21875 441.132812 700.339844 448.828125 686.09375 455.328125 C 679.484375 457.484375 674.042969 458.957031 668.921875 459.988281 C 668.78125 460.011719 668.640625 460.023438 668.503906 460.023438 C 667.300781 460.023438 666.230469 459.222656 665.585938 458.410156 C 665.308594 458 665.078125 457.574219 664.84375 457.039062 C 662.804688 452.355469 664.570312 445.988281 668.621094 443.414062 C 672.015625 441.917969 675.519531 440.777344 678.910156 439.675781 C 681.765625 438.746094 684.71875 437.785156 687.539062 436.640625 C 690.832031 434.945312 694.179688 433.125 697.417969 431.367188 C 701.953125 428.902344 706.640625 426.355469 711.371094 424.046875 C 713 423.082031 714.789062 422.121094 716.683594 421.105469 C 725.78125 416.230469 736.089844 410.703125 736.382812 399.988281 L 735.902344 397.878906 C 731.773438 379.097656 727.503906 359.675781 716.9375 343.351562 C 714.710938 340.824219 715.3125 336.167969 717.203125 333.15625 C 718.289062 331.429688 719.664062 330.5 721.03125 330.605469 C 722.519531 330.726562 723.785156 332 724.800781 334.390625 C 731.011719 345.492188 735.496094 357.65625 739.828125 369.417969 C 741.21875 373.191406 742.65625 377.089844 744.125 380.890625 C 752.105469 401.265625 745.828125 420.546875 727.339844 432.460938 Z M 254.792969 299.308594 L 254.894531 299.375 L 255.019531 299.378906 C 255.441406 299.402344 255.859375 299.414062 256.28125 299.414062 C 261.957031 299.414062 267.582031 297.363281 273.035156 295.378906 C 275.863281 294.347656 278.789062 293.28125 281.664062 292.535156 C 283.640625 291.84375 285.621094 291.15625 287.601562 290.46875 C 296.449219 287.398438 305.597656 284.226562 314.390625 280.550781 C 319.472656 278.304688 324.773438 276.355469 329.898438 274.46875 C 332.339844 273.570312 334.785156 272.667969 337.246094 271.726562 C 348.792969 266.578125 359.949219 260.167969 370.742188 253.96875 C 373.351562 252.46875 375.960938 250.972656 378.582031 249.484375 C 384.855469 245.828125 391.625 241.941406 398.621094 238.273438 C 399.417969 237.828125 400.269531 237.382812 401.152344 236.917969 C 407.449219 233.617188 415.285156 229.511719 413.4375 221.167969 C 413.050781 219.4375 412.210938 218.175781 411.074219 217.609375 C 409.867188 217.011719 408.300781 217.273438 407.199219 218.261719 C 399.527344 224.742188 390.484375 229.652344 381.742188 234.398438 L 379.679688 235.523438 C 372.996094 238.675781 366.449219 241.699219 360.222656 244.503906 C 342.777344 252.363281 328.113281 258.355469 314.082031 263.363281 C 307.425781 265.6875 300.628906 267.957031 294.054688 270.152344 C 284.054688 273.496094 273.71875 276.949219 263.691406 280.65625 C 263.199219 280.800781 262.691406 280.933594 262.175781 281.070312 C 258.464844 282.0625 254.25 283.1875 252.894531 287.410156 C 252.3125 288.855469 251.933594 290.5 251.828125 292.035156 C 251.59375 295.382812 252.644531 297.964844 254.792969 299.308594 Z M 636.757812 460.15625 L 636.597656 460.132812 L 636.460938 460.210938 C 631.539062 462.914062 626.492188 465.878906 621.609375 468.746094 C 618.316406 470.679688 615.023438 472.617188 611.707031 474.507812 C 601.339844 481.378906 590.402344 487.753906 579.832031 493.921875 C 565.875 502.058594 551.441406 510.472656 538.148438 520.117188 C 530.375 525.148438 522.9375 530.976562 515.75 536.613281 C 504.246094 545.632812 492.351562 554.953125 478.839844 561.195312 C 467.511719 566.007812 455.960938 570.359375 444.792969 574.566406 C 436.824219 577.5625 428.585938 580.667969 420.398438 583.945312 C 416.113281 585.605469 411.847656 587.5 407.71875 589.328125 C 398.855469 593.257812 389.6875 597.320312 379.949219 599.269531 C 332.023438 608.917969 297.453125 620.980469 267.875 638.375 C 264.53125 640.132812 261.292969 642.167969 258.160156 644.132812 C 255.691406 645.683594 253.132812 647.289062 250.546875 648.742188 C 245.117188 651.75 233.816406 658.007812 236.609375 668.148438 L 236.664062 668.371094 C 236.691406 668.507812 236.722656 668.640625 236.769531 668.78125 C 237.355469 670.554688 238.296875 671.640625 239.566406 672.007812 C 239.890625 672.101562 240.222656 672.144531 240.5625 672.144531 C 242.816406 672.144531 245.382812 670.269531 247.152344 668.804688 C 252.945312 665.542969 258.71875 662.238281 264.492188 658.933594 C 271.71875 654.796875 279.195312 650.523438 286.601562 646.398438 C 296.882812 640.441406 307.851562 635.679688 319.226562 632.234375 C 324.523438 630.414062 329.796875 628.273438 334.898438 626.207031 C 341.761719 623.425781 348.859375 620.550781 356.117188 618.414062 C 365.53125 614.878906 375.546875 613.117188 385.230469 611.414062 C 392.65625 610.109375 400.332031 608.757812 407.671875 606.628906 C 437.25 601.5 463.835938 587.003906 489.546875 572.980469 C 494.507812 570.273438 499.636719 567.476562 504.679688 564.804688 C 525.136719 554.691406 542.410156 539.644531 559.113281 525.09375 C 570.355469 515.300781 581.980469 505.175781 594.460938 496.644531 C 604.367188 490.355469 613.535156 485.753906 622.492188 482.5625 C 623.609375 482.140625 624.761719 481.742188 625.921875 481.339844 C 630.363281 479.804688 634.960938 478.214844 638.429688 474.941406 C 640.476562 472.894531 641.75 468.6875 641.332031 465.363281 C 640.957031 462.363281 639.332031 460.515625 636.757812 460.15625 Z M 636.757812 460.15625 " fill-opacity="1" fill-rule="nonzero"/></svg>